<svg width="36" height="36" viewBox="0 0 36 36" fill="none" xmlns="http://www.w3.org/2000/svg">
<path fill-rule="evenodd" clip-rule="evenodd" d="M10.5 4.5C7.18629 4.5 4.5 7.18629 4.5 10.5V25.5C4.5 28.8137 7.18629 31.5 10.5 31.5H25.5C28.8137 31.5 31.5 28.8137 31.5 25.5V10.5C31.5 7.18629 28.8137 4.5 25.5 4.5H10.5ZM1.5 10.5C1.5 5.52944 5.52944 1.5 10.5 1.5H25.5C30.4706 1.5 34.5 5.52944 34.5 10.5V25.5C34.5 30.4706 30.4706 34.5 25.5 34.5H10.5C5.52944 34.5 1.5 30.4706 1.5 25.5V10.5Z" fill="white"/>
<path fill-rule="evenodd" clip-rule="evenodd" d="M18.725 13.4837C17.7887 13.3449 16.8325 13.5048 15.9923 13.9408C15.1522 14.3767 14.4709 15.0665 14.0453 15.9119C13.6198 16.7574 13.4717 17.7155 13.622 18.65C13.7724 19.5845 14.2136 20.4478 14.8829 21.117C15.5522 21.7863 16.4155 22.2275 17.35 22.3779C18.2845 22.5283 19.2426 22.3802 20.088 21.9546C20.9335 21.5291 21.6233 20.8478 22.0592 20.0076C22.4951 19.1675 22.6551 18.2113 22.5162 17.275C22.3746 16.32 21.9296 15.4358 21.2469 14.7531C20.5642 14.0704 19.68 13.6254 18.725 13.4837ZM14.6106 11.2779C16.0109 10.5513 17.6046 10.2848 19.165 10.5162C20.7567 10.7522 22.2304 11.4939 23.3682 12.6318C24.506 13.7696 25.2477 15.2432 25.4838 16.8349C25.7152 18.3954 25.4486 19.9891 24.7221 21.3893C23.9955 22.7896 22.8459 23.9251 21.4368 24.6343C20.0277 25.3436 18.4309 25.5904 16.8734 25.3398C15.3159 25.0892 13.8771 24.3538 12.7616 23.2384C11.6461 22.1229 10.9108 20.6841 10.6601 19.1266C10.4095 17.5691 10.6564 15.9722 11.3656 14.5631C12.0749 13.154 13.2104 12.0045 14.6106 11.2779Z" fill="white"/>
<path fill-rule="evenodd" clip-rule="evenodd" d="M24.75 9.75C24.75 8.92157 25.4216 8.25 26.25 8.25H26.265C27.0934 8.25 27.765 8.92157 27.765 9.75C27.765 10.5784 27.0934 11.25 26.265 11.25H26.25C25.4216 11.25 24.75 10.5784 24.75 9.75Z" fill="white"/>
</svg>
