<svg width="28" height="29" viewBox="0 0 28 29" fill="none" xmlns="http://www.w3.org/2000/svg">
<path d="M13.9883 2.83331C7.54831 2.83331 2.33331 8.05998 2.33331 14.5C2.33331 20.94 7.54831 26.1666 13.9883 26.1666C20.44 26.1666 25.6666 20.94 25.6666 14.5C25.6666 8.05998 20.44 2.83331 13.9883 2.83331ZM22.0733 9.83331H18.6316C18.2583 8.37498 17.7216 6.97498 17.0216 5.67998C19.1683 6.41498 20.9533 7.90831 22.0733 9.83331ZM14 5.21331C14.9683 6.61331 15.7266 8.16498 16.2283 9.83331H11.7716C12.2733 8.16498 13.0316 6.61331 14 5.21331ZM4.96998 16.8333C4.78331 16.0866 4.66665 15.305 4.66665 14.5C4.66665 13.695 4.78331 12.9133 4.96998 12.1666H8.91331C8.81998 12.9366 8.74998 13.7066 8.74998 14.5C8.74998 15.2933 8.81998 16.0633 8.91331 16.8333H4.96998ZM5.92665 19.1666H9.36831C9.74165 20.625 10.2783 22.025 10.9783 23.32C8.83165 22.585 7.04665 21.1033 5.92665 19.1666ZM9.36831 9.83331H5.92665C7.04665 7.89665 8.83165 6.41498 10.9783 5.67998C10.2783 6.97498 9.74165 8.37498 9.36831 9.83331ZM14 23.7866C13.0316 22.3866 12.2733 20.835 11.7716 19.1666H16.2283C15.7266 20.835 14.9683 22.3866 14 23.7866ZM16.73 16.8333H11.27C11.165 16.0633 11.0833 15.2933 11.0833 14.5C11.0833 13.7066 11.165 12.925 11.27 12.1666H16.73C16.835 12.925 16.9166 13.7066 16.9166 14.5C16.9166 15.2933 16.835 16.0633 16.73 16.8333ZM17.0216 23.32C17.7216 22.025 18.2583 20.625 18.6316 19.1666H22.0733C20.9533 21.0916 19.1683 22.585 17.0216 23.32ZM19.0866 16.8333C19.18 16.0633 19.25 15.2933 19.25 14.5C19.25 13.7066 19.18 12.9366 19.0866 12.1666H23.03C23.2166 12.9133 23.3333 13.695 23.3333 14.5C23.3333 15.305 23.2166 16.0866 23.03 16.8333H19.0866Z" fill="white"/>
</svg>
