<svg width="48" height="106" viewBox="0 0 48 106" fill="none" xmlns="http://www.w3.org/2000/svg">
<path d="M40 17.93C39.92 9.15001 32.8 2.07001 24 2.07001C15.2 2.07001 8.08 9.15001 8 17.93V29.93C8 38.77 15.16 45.93 24 45.93C32.84 45.93 40 38.77 40 29.93V17.93ZM36 17.93H26V6.25001C31.62 7.19001 35.92 12.05 36 17.93ZM22 6.25001V17.93H12C12.08 12.05 16.38 7.19001 22 6.25001ZM36 29.93C36 36.55 30.62 41.93 24 41.93C17.38 41.93 12 36.55 12 29.93V21.93H36V29.93Z" fill="white"/>
<path d="M36 70.82L33.18 68L24 77.16L14.82 68L12 70.82L24 82.82L36 70.82Z" fill="white"/>
<path d="M36 84L33.18 81.18L24 90.34L14.82 81.18L12 84L24 96L36 84Z" fill="white"/>
</svg>
