<svg width="22" height="22" viewBox="0 0 22 22" fill="none" xmlns="http://www.w3.org/2000/svg">
<path d="M2.83337 21.5C2.18904 22.1443 1.14437 22.1443 0.500041 21.5C-0.144291 20.8557 -0.144292 19.811 0.50004 19.1667L8.66671 11L0.50004 2.83334C-0.144292 2.18901 -0.144292 1.14434 0.500041 0.50001C1.14437 -0.144322 2.18904 -0.144322 2.83337 0.500011L11 8.66668L19.1667 0.500008C19.811 -0.144324 20.8557 -0.144322 21.5 0.50001C22.1444 1.14434 22.1444 2.18901 21.5 2.83334L13.3334 11L21.5 19.1667C22.1444 19.811 22.1444 20.8557 21.5 21.5C20.8557 22.1443 19.811 22.1443 19.1667 21.5L11 13.3333L2.83337 21.5Z" fill="white"/>
</svg>
